<svg id="VERSION-3" xmlns="http://www.w3.org/2000/svg" viewBox="0 0 150.79 30.8"><defs><style>.cls-1{fill:#0e7be1;}.cls-2{fill:#46d298;}</style></defs><title>logo</title><g id="container_copy" data-name="container copy"><g id="logo_copy" data-name="logo copy"><path class="cls-1" d="M26.46,17.75a10.55,10.55,0,1,1-2.64-8.44l3.79-3a15.44,15.44,0,1,0,3.6,7.67Z" transform="translate(-0.61 -0.98)"/><polygon class="cls-2" points="33.52 2.48 15.9 16.62 11.79 11.49 8.32 14.28 15.22 22.87 36.3 5.95 36.3 5.95 33.52 2.48"/><g id="choice"><path class="cls-1" d="M40.37,16.49a3.5,3.5,0,0,0-.59-.67,1.89,1.89,0,0,0-.57-.28,2.67,2.67,0,0,0-.64-.08,1.88,1.88,0,0,0-.91.22,2,2,0,0,0-.73.6,2.85,2.85,0,0,0-.49.87,3.45,3.45,0,0,0,0,2.14,2.82,2.82,0,0,0,.48.87,2.31,2.31,0,0,0,.72.6,2.09,2.09,0,0,0,.93.22,1.84,1.84,0,0,0,.66-.12,2,2,0,0,0,.55-.3,2.24,2.24,0,0,0,.44-.43,2.16,2.16,0,0,0,.29-.51l1.89.53A3.77,3.77,0,0,1,41,22.06a3.79,3.79,0,0,1-1.12.56,4.08,4.08,0,0,1-1.33.21,4,4,0,0,1-1.15-.16,4.18,4.18,0,0,1-1-.47,4.27,4.27,0,0,1-.87-.72,4.36,4.36,0,0,1-.66-.93,4.58,4.58,0,0,1-.43-1.1,5.05,5.05,0,0,1-.15-1.23,4.83,4.83,0,0,1,.33-1.79A4.74,4.74,0,0,1,35.52,15a4.19,4.19,0,0,1,1.37-1,3.82,3.82,0,0,1,1.68-.37,3.55,3.55,0,0,1,1.21.18,3.64,3.64,0,0,1,1.09.71h1.31v2Z" transform="translate(-0.61 -0.98)"/><path class="cls-1" d="M43.33,13.55h2.73v3.61a2.82,2.82,0,0,1,.76-.49,2.27,2.27,0,0,1,.91-.18,2.21,2.21,0,0,1,1.68.61A2.5,2.5,0,0,1,50,18.89v2.18h.89v1.6H48.17V19.3a1.23,1.23,0,0,0-.25-.8.81.81,0,0,0-.65-.29,1.48,1.48,0,0,0-.58.14,2.83,2.83,0,0,0-.63.43v2.29H47v1.6H43.33v-1.6h.94V15.16h-.94Z" transform="translate(-0.61 -0.98)"/><path class="cls-1" d="M51.54,19.61a3.22,3.22,0,0,1,.24-1.24,3,3,0,0,1,.67-1,3.12,3.12,0,0,1,1-.69,3.53,3.53,0,0,1,2.61,0,3.06,3.06,0,0,1,1,.69,3,3,0,0,1,.67,1A3.41,3.41,0,0,1,58,19.61a3.27,3.27,0,0,1-.23,1.25,3,3,0,0,1-.65,1,3.28,3.28,0,0,1-1,.69,3.64,3.64,0,0,1-2.65,0,3.06,3.06,0,0,1-1-.69,3,3,0,0,1-.65-1A3.2,3.2,0,0,1,51.54,19.61Zm1.75,0a1.66,1.66,0,0,0,.12.64,1.38,1.38,0,0,0,.32.5,1.5,1.5,0,0,0,.46.33,1.44,1.44,0,0,0,1.15,0,1.51,1.51,0,0,0,.47-.32,1.53,1.53,0,0,0,.3-.51,1.62,1.62,0,0,0,.11-.64,1.67,1.67,0,0,0-.11-.65,1.39,1.39,0,0,0-.3-.5,1.33,1.33,0,0,0-.47-.31,1.38,1.38,0,0,0-.57-.11,1.4,1.4,0,0,0-.58.11,1.42,1.42,0,0,0-.78.81A1.67,1.67,0,0,0,53.29,19.61Z" transform="translate(-0.61 -0.98)"/><path class="cls-1" d="M58.88,16.6H61.6v4.47h.85v1.6H58.88v-1.6h.91V18.21h-.91Zm.82-2a1.06,1.06,0,0,1,.08-.4.83.83,0,0,1,.22-.33,1,1,0,0,1,.33-.23,1.11,1.11,0,0,1,.41-.08,1.06,1.06,0,0,1,.4.08,1.09,1.09,0,0,1,.33.23,1,1,0,0,1,.22.33.9.9,0,0,1,.08.4.94.94,0,0,1-.08.41,1,1,0,0,1-.22.33,1.09,1.09,0,0,1-.33.23,1.06,1.06,0,0,1-.4.08,1.11,1.11,0,0,1-.41-.08,1,1,0,0,1-.33-.23.83.83,0,0,1-.22-.33A1.11,1.11,0,0,1,59.7,14.64Z" transform="translate(-0.61 -0.98)"/><path class="cls-1" d="M68.05,18.7a1.69,1.69,0,0,0-.56-.48,1.43,1.43,0,0,0-.73-.14,1.4,1.4,0,0,0-.62.1,1.43,1.43,0,0,0-.79.83,1.67,1.67,0,0,0-.11.65,1.78,1.78,0,0,0,.11.61,1.54,1.54,0,0,0,.32.49,1.58,1.58,0,0,0,.48.33,2,2,0,0,0,.61.14,1.93,1.93,0,0,0,.5-.11,1.47,1.47,0,0,0,.4-.24,1.3,1.3,0,0,0,.3-.32,1.76,1.76,0,0,0,.2-.34l1.61.45a3,3,0,0,1-.34.73,2.72,2.72,0,0,1-.63.69,3.21,3.21,0,0,1-.93.52,3.32,3.32,0,0,1-1.22.21,3.15,3.15,0,0,1-1.28-.26,3,3,0,0,1-1-.69,3.25,3.25,0,0,1-.66-1,3.38,3.38,0,0,1-.24-1.27,3.2,3.2,0,0,1,.24-1.25,3.24,3.24,0,0,1,.67-1,3.07,3.07,0,0,1,1-.67,3,3,0,0,1,1.28-.22,2.81,2.81,0,0,1,1,.11,3.35,3.35,0,0,1,.88.41h1.16V18.7Z" transform="translate(-0.61 -0.98)"/><path class="cls-1" d="M72,20l0,.18a1.09,1.09,0,0,0,.22.46,1.46,1.46,0,0,0,.36.34,1.8,1.8,0,0,0,.47.2,2.32,2.32,0,0,0,.52.07,3.9,3.9,0,0,0,.5,0l.46-.08L75,21l.42-.16.65,1.2a7,7,0,0,1-.61.35,3.49,3.49,0,0,1-1.16.38,5.41,5.41,0,0,1-.74,0,3.65,3.65,0,0,1-1.41-.26,2.92,2.92,0,0,1-1-.71,3,3,0,0,1-.64-1,3.81,3.81,0,0,1-.22-1.27,3.47,3.47,0,0,1,.23-1.25,3.2,3.2,0,0,1,.66-1,3.08,3.08,0,0,1,1-.69,3.26,3.26,0,0,1,1.31-.25,3.33,3.33,0,0,1,1.26.23,2.75,2.75,0,0,1,.94.66,2.88,2.88,0,0,1,.58,1,3.66,3.66,0,0,1,.23,1.21c0,.1,0,.2,0,.29s0,.2,0,.3Zm1.4-2.22a1.79,1.79,0,0,0-.56.08,1,1,0,0,0-.39.22.93.93,0,0,0-.25.31,1.69,1.69,0,0,0-.15.37h2.54a2,2,0,0,0-.12-.37,1,1,0,0,0-.21-.31.91.91,0,0,0-.34-.22A1.54,1.54,0,0,0,73.4,17.8Z" transform="translate(-0.61 -0.98)"/></g><g id="credit"><path class="cls-2" d="M83.28,16.49a3.19,3.19,0,0,0-.6-.67,1.69,1.69,0,0,0-.57-.28,2.59,2.59,0,0,0-.63-.08,1.92,1.92,0,0,0-.92.22,2.2,2.2,0,0,0-.73.6,3,3,0,0,0-.48.87,3.27,3.27,0,0,0,0,2.14,2.8,2.8,0,0,0,.47.87,2.47,2.47,0,0,0,.73.6,2.06,2.06,0,0,0,.93.22,1.75,1.75,0,0,0,.65-.12,1.89,1.89,0,0,0,.56-.3,2.19,2.19,0,0,0,.43-.43,1.9,1.9,0,0,0,.3-.51l1.88.53a3.62,3.62,0,0,1-1.38,1.91,3.86,3.86,0,0,1-1.11.56,4.12,4.12,0,0,1-1.33.21,4,4,0,0,1-1.16-.16,4.18,4.18,0,0,1-1-.47,4.51,4.51,0,0,1-.86-.72,4.4,4.4,0,0,1-.67-.93,5.59,5.59,0,0,1-.43-1.1,5.05,5.05,0,0,1-.15-1.23,4.64,4.64,0,0,1,.34-1.79A4.56,4.56,0,0,1,78.43,15a4.26,4.26,0,0,1,1.36-1,3.84,3.84,0,0,1,1.69-.37,3.55,3.55,0,0,1,1.21.18,3.49,3.49,0,0,1,1.08.71h1.32v2Z" transform="translate(-0.61 -0.98)"/><path class="cls-2" d="M91.88,18.81H90.23v-.63a2,2,0,0,0-.44,0,1.2,1.2,0,0,0-.35.1.85.85,0,0,0-.25.21.74.74,0,0,0-.14.34v2.2h1.23v1.6h-4v-1.6h.91V18.21h-.9V16.6H89V17a2.19,2.19,0,0,1,.58-.32,2.3,2.3,0,0,1,.71-.11h1.56Z" transform="translate(-0.61 -0.98)"/><path class="cls-2" d="M94.45,20l0,.18a1.09,1.09,0,0,0,.22.46,1.46,1.46,0,0,0,.36.34,1.8,1.8,0,0,0,.47.2,2.32,2.32,0,0,0,.52.07,3.75,3.75,0,0,0,.5,0l.46-.08.44-.13.42-.16.65,1.2a7,7,0,0,1-.61.35,3.37,3.37,0,0,1-.56.24,3.75,3.75,0,0,1-.6.14,5.41,5.41,0,0,1-.74,0,3.6,3.6,0,0,1-1.4-.26,3,3,0,0,1-1.68-1.75,3.81,3.81,0,0,1-.22-1.27,3.47,3.47,0,0,1,.23-1.25,3.2,3.2,0,0,1,.66-1,3,3,0,0,1,1-.69,3.21,3.21,0,0,1,1.3-.25,3.29,3.29,0,0,1,1.26.23,2.66,2.66,0,0,1,.94.66,3.07,3.07,0,0,1,.59,1,3.94,3.94,0,0,1,.22,1.21c0,.1,0,.2,0,.29s0,.2,0,.3Zm1.4-2.22a1.79,1.79,0,0,0-.56.08,1.24,1.24,0,0,0-.39.22.93.93,0,0,0-.25.31,2.39,2.39,0,0,0-.15.37H97a2,2,0,0,0-.12-.37,1,1,0,0,0-.21-.31.91.91,0,0,0-.34-.22A1.54,1.54,0,0,0,95.85,17.8Z" transform="translate(-0.61 -0.98)"/><path class="cls-2" d="M103.41,13.55h2.66v7.52h1.18v1.6h-3v-.23a3.9,3.9,0,0,1-.64.26,2.59,2.59,0,0,1-.68.09A3,3,0,0,1,100,20.84a3.27,3.27,0,0,1-.23-1.25,3.23,3.23,0,0,1,.23-1.25,3.06,3.06,0,0,1,.64-1,2.94,2.94,0,0,1,1-.67,3.13,3.13,0,0,1,1.27-.25,3.18,3.18,0,0,1,1.35.28V15.16h-.85ZM103,21.17a1.36,1.36,0,0,0,.7-.2,1.53,1.53,0,0,0,.52-.49V18.69A1.46,1.46,0,0,0,103,18a1.38,1.38,0,0,0-.57.11,1.6,1.6,0,0,0-.47.31,1.51,1.51,0,0,0-.31.5,1.79,1.79,0,0,0,0,1.29,1.41,1.41,0,0,0,.31.5,1.57,1.57,0,0,0,.47.3A1.81,1.81,0,0,0,103,21.17Z" transform="translate(-0.61 -0.98)"/><path class="cls-2" d="M108,16.6h2.72v4.47h.84v1.6H108v-1.6h.91V18.21H108Zm.82-2a1.05,1.05,0,0,1,.07-.4,1.12,1.12,0,0,1,.22-.33,1.13,1.13,0,0,1,.34-.23,1.07,1.07,0,0,1,.41-.08,1.1,1.1,0,0,1,.4.08,1,1,0,0,1,.32.23,1,1,0,0,1,.23.33,1.06,1.06,0,0,1,.08.4,1.11,1.11,0,0,1-.08.41,1,1,0,0,1-.23.33,1,1,0,0,1-.32.23,1.1,1.1,0,0,1-.4.08,1.07,1.07,0,0,1-.41-.08,1.13,1.13,0,0,1-.34-.23,1.12,1.12,0,0,1-.22-.33A1.1,1.1,0,0,1,108.85,14.64Z" transform="translate(-0.61 -0.98)"/><path class="cls-2" d="M114.94,16.6h1.22v1.54h-1.23V20.7a1.19,1.19,0,0,0,0,.36.45.45,0,0,0,.1.22.29.29,0,0,0,.16.11.73.73,0,0,0,.22,0,1.51,1.51,0,0,0,.39,0l.34-.1.25,1.13a3.32,3.32,0,0,1-.66.3,3.23,3.23,0,0,1-.87.11,2,2,0,0,1-.69-.12,1.78,1.78,0,0,1-.57-.38,1.83,1.83,0,0,1-.39-.62,2.34,2.34,0,0,1-.14-.87l0-2.69h-.88V16.6h.88V15.15l1.83-.87Z" transform="translate(-0.61 -0.98)"/></g><g id="score"><path class="cls-1" d="M121.81,16.29a1,1,0,0,0-.15-.39,1.06,1.06,0,0,0-.29-.31,1.39,1.39,0,0,0-.4-.21,1.51,1.51,0,0,0-.48-.07,1.84,1.84,0,0,0-.41,0,1,1,0,0,0-.34.15.7.7,0,0,0-.23.25.8.8,0,0,0-.08.36.77.77,0,0,0,.11.42,1,1,0,0,0,.29.25,1.76,1.76,0,0,0,.4.16l.42.13,1.61.54a2.49,2.49,0,0,1,.63.32,2.2,2.2,0,0,1,.51.5,2.33,2.33,0,0,1,.33.67,2.59,2.59,0,0,1,.13.86,2.86,2.86,0,0,1-.24,1.18,2.63,2.63,0,0,1-.67.91,3,3,0,0,1-1,.59,4,4,0,0,1-1.32.21,3.8,3.8,0,0,1-1-.11,3.6,3.6,0,0,1-.83-.33,2.8,2.8,0,0,1-.65-.52,2.15,2.15,0,0,1-.44-.68h-.61V19.44h2.12v.37a1.28,1.28,0,0,0,.09.48,1.14,1.14,0,0,0,.25.39,1.22,1.22,0,0,0,.43.25,1.81,1.81,0,0,0,.61.1,1.2,1.2,0,0,0,.8-.25.86.86,0,0,0,.27-.67.74.74,0,0,0-.09-.38,1,1,0,0,0-.25-.25,1.8,1.8,0,0,0-.34-.17l-.37-.13-1.34-.43a3.49,3.49,0,0,1-.74-.33,2.86,2.86,0,0,1-.63-.53,2.57,2.57,0,0,1-.43-.74,2.67,2.67,0,0,1-.16-1,2.71,2.71,0,0,1,.23-1.13,2.34,2.34,0,0,1,.66-.83,3,3,0,0,1,1-.52,4.29,4.29,0,0,1,1.27-.17,4,4,0,0,1,1,.12,3.69,3.69,0,0,1,.83.34,2.76,2.76,0,0,1,.62.48,2.07,2.07,0,0,1,.39.57h.59v1.77h-2.12Z" transform="translate(-0.61 -0.98)"/><path class="cls-1" d="M129.18,18.7a1.69,1.69,0,0,0-.56-.48,1.43,1.43,0,0,0-.73-.14,1.4,1.4,0,0,0-.62.1,1.25,1.25,0,0,0-.48.33,1.28,1.28,0,0,0-.31.5,1.67,1.67,0,0,0-.12.65,1.58,1.58,0,0,0,.12.61,1.54,1.54,0,0,0,.32.49,1.58,1.58,0,0,0,.48.33,2,2,0,0,0,.61.14,1.93,1.93,0,0,0,.5-.11,1.47,1.47,0,0,0,.4-.24,1.3,1.3,0,0,0,.3-.32,1.76,1.76,0,0,0,.2-.34l1.61.45a3,3,0,0,1-.34.73,2.77,2.77,0,0,1-.64.69,3.15,3.15,0,0,1-.92.52,3.36,3.36,0,0,1-1.22.21,3.2,3.2,0,0,1-1.29-.26,3.08,3.08,0,0,1-1-.69,2.94,2.94,0,0,1-.66-1,3.38,3.38,0,0,1-.24-1.27,3.2,3.2,0,0,1,.24-1.25,3,3,0,0,1,1.69-1.68,3,3,0,0,1,1.28-.22,2.81,2.81,0,0,1,1,.11,3.29,3.29,0,0,1,.87.41h1.17V18.7Z" transform="translate(-0.61 -0.98)"/><path class="cls-1" d="M131.5,19.61a3.22,3.22,0,0,1,.24-1.24,3.18,3.18,0,0,1,.67-1,3.18,3.18,0,0,1,2.32-.94,3.32,3.32,0,0,1,1.31.25,3.28,3.28,0,0,1,1,.69,3,3,0,0,1,.66,1,3.22,3.22,0,0,1,.24,1.24,3.47,3.47,0,0,1-.23,1.25,3.07,3.07,0,0,1-1.68,1.71,3.45,3.45,0,0,1-1.32.25,3.54,3.54,0,0,1-1.33-.25,3.12,3.12,0,0,1-1-.69,3.2,3.2,0,0,1-.66-1A3.39,3.39,0,0,1,131.5,19.61Zm1.76,0a1.66,1.66,0,0,0,.11.64,1.71,1.71,0,0,0,.32.5,1.54,1.54,0,0,0,.47.33,1.44,1.44,0,0,0,1.15,0,1.36,1.36,0,0,0,.46-.32,1.55,1.55,0,0,0,.31-.51,1.83,1.83,0,0,0,.11-.64,1.88,1.88,0,0,0-.11-.65,1.41,1.41,0,0,0-.31-.5,1.21,1.21,0,0,0-.46-.31,1.4,1.4,0,0,0-.58-.11,1.38,1.38,0,0,0-.57.11,1.33,1.33,0,0,0-.47.31,1.59,1.59,0,0,0-.32.5A1.67,1.67,0,0,0,133.26,19.61Z" transform="translate(-0.61 -0.98)"/><path class="cls-1" d="M144.35,18.81h-1.64v-.63a2,2,0,0,0-.44,0,1.11,1.11,0,0,0-.35.1.74.74,0,0,0-.25.21.88.88,0,0,0-.15.34v2.2h1.24v1.6h-4v-1.6h.91V18.21h-.9V16.6h2.7V17a2,2,0,0,1,.58-.32,2.28,2.28,0,0,1,.7-.11h1.56Z" transform="translate(-0.61 -0.98)"/><path class="cls-1" d="M146.93,20v.18a1.4,1.4,0,0,0,.22.46,1.7,1.7,0,0,0,.37.34,1.8,1.8,0,0,0,.47.2,2.25,2.25,0,0,0,.52.07,4,4,0,0,0,.5,0l.46-.08.43-.13.43-.16.65,1.2a7.05,7.05,0,0,1-.62.35,3,3,0,0,1-.56.24,3.4,3.4,0,0,1-.59.14,5.41,5.41,0,0,1-.74,0,3.65,3.65,0,0,1-1.41-.26,2.92,2.92,0,0,1-1-.71,3,3,0,0,1-.64-1,3.57,3.57,0,0,1-.22-1.27,3.47,3.47,0,0,1,.23-1.25,3.18,3.18,0,0,1,.65-1,3.13,3.13,0,0,1,2.31-.94,3.34,3.34,0,0,1,1.27.23,2.75,2.75,0,0,1,.94.66,2.88,2.88,0,0,1,.58,1,3.66,3.66,0,0,1,.22,1.21,1.46,1.46,0,0,1,0,.29c0,.1,0,.2,0,.3Zm1.4-2.22a1.79,1.79,0,0,0-.56.08,1,1,0,0,0-.39.22,1.1,1.1,0,0,0-.26.31,1.66,1.66,0,0,0-.14.37h2.54a2,2,0,0,0-.12-.37,1,1,0,0,0-.56-.53A1.47,1.47,0,0,0,148.33,17.8Z" transform="translate(-0.61 -0.98)"/></g></g></g></svg>